HIERARCHY
ROOT Hips
{
    OFFSET 0.000000 0.000000 0.000000
    CHANNELS 6 Xposition Yposition Zposition Zrotation Xrotation Yrotation
    JOINT Spine
    {
        OFFSET -0.000000 8.249566 0.000000
        CHANNELS 3 Zrotation Xrotation Yrotation
        JOINT Spine1
        {
            OFFSET -0.000000 22.751984 0.000000
            CHANNELS 3 Zrotation Xrotation Yrotation
            JOINT Neck
            {
                OFFSET -0.000000 22.658548 2.059868
                CHANNELS 3 Zrotation Xrotation Yrotation
                JOINT Head
                {
                    OFFSET -0.000000 14.084625 -2.012089
                    CHANNELS 3 Zrotation Xrotation Yrotation
                    End Site
                    {
                        OFFSET -0.000000 25.151115 0.000000
                    }
                }
            }
            JOINT LeftShoulder
            {
                OFFSET 4.014710 20.418900 0.142539
                CHANNELS 3 Zrotation Xrotation Yrotation
                JOINT LeftArm
                {
                    OFFSET 12.409162 0.000000 0.000000
                    CHANNELS 3 Zrotation Xrotation Yrotation
                    JOINT LeftForeArm
                    {
                        OFFSET 32.111938 0.000000 0.000000
                        CHANNELS 3 Zrotation Xrotation Yrotation
                        JOINT LeftHand
                        {
                            OFFSET 25.320286 0.000000 0.000000
                            CHANNELS 3 Zrotation Xrotation Yrotation
                            End Site
                            {
                                OFFSET 15.090670 0.000000 0.000000
                            }
                        }
                    }
                }
            }
            JOINT RightShoulder
            {
                OFFSET -4.019371 20.418900 0.142539
                CHANNELS 3 Zrotation Xrotation Yrotation
                JOINT RightArm
                {
                    OFFSET -12.409162 0.000000 0.000000
                    CHANNELS 3 Zrotation Xrotation Yrotation
                    JOINT RightForeArm
                    {
                        OFFSET -32.111938 0.000000 0.000000
                        CHANNELS 3 Zrotation Xrotation Yrotation
                        JOINT RightHand
                        {
                            OFFSET -25.320286 0.000000 0.000000
                            CHANNELS 3 Zrotation Xrotation Yrotation
                            End Site
                            {
                                OFFSET -15.090670 0.000000 0.000000
                            }
                        }
                    }
                }
            }
        }
    }
    JOINT LeftUpLeg
    {
        OFFSET 10.060447 0.000000 0.000000
        CHANNELS 3 Zrotation Xrotation Yrotation
        JOINT LeftLeg
        {
            OFFSET -0.000000 -49.683781 0.000000
            CHANNELS 3 Zrotation Xrotation Yrotation
            JOINT LeftFoot
            {
                OFFSET -0.000000 -37.035061 0.000000
                CHANNELS 3 Zrotation Xrotation Yrotation
                JOINT LeftToeBase
                {
                    OFFSET -0.000000 -6.539289 15.090670
                    CHANNELS 3 Zrotation Xrotation Yrotation
                    End Site
                    {
                        OFFSET -0.000000 0.000000 4.024179
                    }
                }
            }
        }
    }
    JOINT RightUpLeg
    {
        OFFSET -10.060447 0.000000 0.000000
        CHANNELS 3 Zrotation Xrotation Yrotation
        JOINT RightLeg
        {
            OFFSET -0.000000 -49.683781 0.000000
            CHANNELS 3 Zrotation Xrotation Yrotation
            JOINT RightFoot
            {
                OFFSET -0.000000 -37.035061 0.000000
                CHANNELS 3 Zrotation Xrotation Yrotation
                JOINT RightToeBase
                {
                    OFFSET -0.000000 -6.539289 15.090670
                    CHANNELS 3 Zrotation Xrotation Yrotation
                    End Site
                    {
                        OFFSET -0.000000 0.000000 4.024179
                    }
                }
            }
        }
    }
}
MOTION
Frames:    5
Frame Time:    0.008333
-41.593132    85.482620    41.400112    14.127306    -14.982889    -163.298965    -0.386918    5.981791    -8.703419    0.554803    -3.715484    -8.705666    6.137701    3.091138    26.810318    -21.373863    9.817368    26.225077    26.553059    -18.736841    -25.813797    -23.469082    5.355961    -77.861618    16.466093    -19.785875    -44.045891    15.000678    -14.809329    -11.355760    -2.013079    -3.825709    9.278425    33.374462    17.907793    66.640633    -40.843552    -39.762203    31.882675    -52.459583    -29.488380    -0.579689    7.767642    -30.829109    5.335373    -67.255379    82.396713    79.410812    -1.203287    -4.122926    8.456375    0.000000    0.000000    0.000000    20.054266    -49.651901    21.142754    -4.338007    60.230671    19.217983    -0.777032    -17.600122    3.886514    0.000000    0.000000    0.000000    
-42.677055    85.878845    40.811947    13.397564    -15.152530    -164.747955    -0.415613    5.941285    -8.594464    0.436234    -3.963183    -8.600970    5.513230    2.941053    26.956387    -20.864382    9.547996    26.421770    27.059214    -19.466858    -25.329454    -22.648012    5.046524    -79.285103    18.732491    -20.240252    -45.782593    15.735456    -14.237347    -12.290861    -2.002239    -3.603262    9.177487    34.651222    15.959022    65.333931    -43.761486    -40.034607    33.543903    -53.199085    -28.532166    -0.058158    8.146076    -31.429073    6.105659    -67.927048    82.056549    80.173622    -0.991351    -4.952765    8.706960    0.000000    0.000000    0.000000    19.371889    -48.742481    21.605059    -4.449239    59.675465    19.626656    -0.604109    -17.267906    4.033798    0.000000    0.000000    0.000000    
-43.746052    86.313141    40.170033    12.695161    -15.137806    -166.139633    -0.483888    6.007567    -8.502484    0.440375    -4.128831    -8.512030    5.099887    2.837018    27.139250    -20.729874    9.373446    26.636602    27.706003    -20.407179    -25.099770    -22.950762    4.299074    -80.203239    19.735182    -20.122110    -48.028572    16.479691    -13.467743    -13.355390    -1.911365    -3.394157    9.038461    35.949272    14.017460    64.095764    -46.604439    -40.067940    35.289841    -53.465954    -27.212507    0.585312    8.614833    -31.808115    6.679752    -63.978298    81.492432    80.655373    -0.684630    -4.994374    5.237156    0.000000    0.000000    0.000000    18.639757    -47.626869    22.005772    -4.533382    59.013168    20.088953    -0.457785    -16.917908    4.098771    0.000000    0.000000    0.000000    
-44.815357    86.775696    39.522011    12.011424    -15.178164    -167.467468    -0.597739    5.977181    -8.430161    0.509060    -4.207703    -8.442698    5.203810    3.131719    27.480207    -21.797668    9.022137    26.880909    28.325251    -20.834539    -24.551523    -22.236532    3.875265    -81.597488    22.058924    -21.248785    -49.518299    16.238363    -13.415898    -14.748829    -1.852706    -3.295864    8.834558    36.612122    12.708530    63.010937    -50.944347    -40.681705    35.860355    -52.994957    -25.976135    0.227136    9.072124    -32.271099    7.298756    -65.913651    81.403328    75.697746    -0.062119    -7.558642    11.550894    0.000000    0.000000    0.000000    17.883209    -46.615013    22.289413    -4.751807    58.318665    20.445501    -0.236403    -16.361626    4.448779    0.000000    0.000000    0.000000    
-45.877316    87.255257    38.889896    11.287050    -15.284963    -168.788651    -0.625350    5.925812    -8.405823    0.353959    -4.421727    -8.424555    4.861512    3.311681    27.737864    -21.833565    8.638502    27.128458    29.048767    -21.669596    -23.769581    -22.962137    3.446408    -82.794701    22.669659    -21.471336    -51.857529    16.487352    -12.981393    -15.808275    -1.908985    -3.380279    8.608006    37.528839    11.841380    61.916195    -55.450191    -41.159573    36.038475    -52.772141    -24.729769    0.163876    9.443865    -32.931061    8.309912    -60.178577    81.389626    71.960838    0.642341    -7.838346    9.893249    0.000000    0.000000    0.000000    17.023584    -45.682171    22.718836    -4.616067    57.560513    20.535265    -0.088346    -15.826462    4.557191    0.000000    0.000000    0.000000    
